<svg xmlns="http://www.w3.org/2000/svg" data-name="Layer 1" viewBox="0 0 64 64"><path fill="#4f5d75" d="M42,14V10H39.738a7.968,7.968,0,0,0-.852-2.058l1.6-1.6L37.657,3.515l-1.6,1.6A7.968,7.968,0,0,0,34,4.262V2H30V4.262a7.968,7.968,0,0,0-2.058.852l-1.6-1.6L23.515,6.343l1.6,1.6A7.968,7.968,0,0,0,24.262,10H22v4h2.262a7.968,7.968,0,0,0,.852,2.058l-1.6,1.6,2.828,2.828,1.6-1.6A7.968,7.968,0,0,0,30,19.738V22h4V19.738a7.968,7.968,0,0,0,2.058-.852l1.6,1.6,2.828-2.828-1.6-1.6A7.968,7.968,0,0,0,39.738,14Z"/><circle cx="32" cy="12" r="3" fill="#ff9f1c"/><path fill="#4f5d75" d="M62,29V25H59.738a7.968,7.968,0,0,0-.852-2.058l1.6-1.6-2.828-2.828-1.6,1.6A7.968,7.968,0,0,0,54,19.262V17H50v2.262a7.968,7.968,0,0,0-2.058.852l-1.6-1.6-2.828,2.828,1.6,1.6A7.968,7.968,0,0,0,44.262,25H42v4h2.262a7.968,7.968,0,0,0,.852,2.058l-1.6,1.6,2.828,2.828,1.6-1.6A7.968,7.968,0,0,0,50,34.738V37h4V34.738a7.968,7.968,0,0,0,2.058-.852l1.6,1.6,2.828-2.828-1.6-1.6A7.968,7.968,0,0,0,59.738,29Z"/><circle cx="52" cy="27" r="3" fill="#41ead4"/><path fill="#4f5d75" d="M22,29V25H19.738a7.968,7.968,0,0,0-.852-2.058l1.6-1.6-2.828-2.828-1.6,1.6A7.968,7.968,0,0,0,14,19.262V17H10v2.262a7.968,7.968,0,0,0-2.058.852l-1.6-1.6L3.515,21.343l1.6,1.6A7.968,7.968,0,0,0,4.262,25H2v4H4.262a7.968,7.968,0,0,0,.852,2.058l-1.6,1.6,2.828,2.828,1.6-1.6A7.968,7.968,0,0,0,10,34.738V37h4V34.738a7.968,7.968,0,0,0,2.058-.852l1.6,1.6,2.828-2.828-1.6-1.6A7.968,7.968,0,0,0,19.738,29Z"/><circle cx="12" cy="27" r="3" fill="#f71735"/><path fill="#1b98e0" d="M16.923 53.91c-5.145-.843-5.99-1.688-6.833-6.833a.091.091 0 0 0-.18 0c-.843 5.145-1.688 5.99-6.833 6.833a.091.091 0 0 0 0 .18c5.145.843 5.99 1.688 6.833 6.833a.091.091 0 0 0 .18 0c.843-5.145 1.688-5.99 6.833-6.833A.091.091 0 0 0 16.923 53.91zM60.923 53.91c-5.145-.843-5.99-1.688-6.833-6.833a.091.091 0 0 0-.18 0c-.843 5.145-1.688 5.99-6.833 6.833a.091.091 0 0 0 0 .18c5.145.843 5.99 1.688 6.833 6.833a.091.091 0 0 0 .18 0c.843-5.145 1.688-5.99 6.833-6.833A.091.091 0 0 0 60.923 53.91z"/><path fill="#2d3142" d="M28.71,52H35.29A9.71,9.71,0,0,1,45,61.71V62a0,0,0,0,1,0,0H19a0,0,0,0,1,0,0v-.29A9.71,9.71,0,0,1,28.71,52Z"/><polygon fill="#247ba0" points="35.111 62 32 57.714 28.889 62 28 52 36 52 35.111 62"/><polygon fill="#f71735" points="32 58 34 52 30 52 32 58"/><path fill="#ffbf69" d="M38.92,40.88v.55A2.25,2.25,0,0,1,41,43.82a2.6,2.6,0,0,1-.61,1.7,1.936,1.936,0,0,1-1.47.7,6.213,6.213,0,0,1-3.56,5.44l-1.9.99a3.22,3.22,0,0,1-2.92,0l-1.9-.99a6.837,6.837,0,0,1-2.61-2.31,5.727,5.727,0,0,1-.95-3.13,2.419,2.419,0,0,1,0-4.79V41l8.52-2h2.41Z"/><path fill="#2d3142" d="M40,42h0a5.036,5.036,0,0,1-3.725-1.7L36,41l-1.091-2a9.3,9.3,0,0,1-7.023,3H24V39.6c0-3.978,2.931-5.6,6.547-5.6h2.906C37.069,34,40,35.624,40,39.6Z"/></svg>