<svg xmlns="http://www.w3.org/2000/svg" width="32" height="32" viewBox="0 0 32 32"><g transform="translate(-1209.998 163.639)"><path fill="#2b4255" style="line-height:normal;text-indent:0;text-align:start;text-decoration-line:none;text-decoration-style:solid;text-decoration-color:#000;text-transform:none;block-progression:tb;isolation:auto;mix-blend-mode:normal" d="m 1218.5,-161.63867 a 0.50005,0.50005 0 0 0 -0.5,0.5 l 0,5.94531 a 0.50005,0.50005 0 1 0 1,0 l 0,-5.44531 14,0 0,5.26562 a 0.50005,0.50005 0 1 0 1,0 l 0,-5.76562 a 0.50005,0.50005 0 0 0 -0.5,-0.5 l -15,0 z m -0.01,11.24609 a 0.50005,0.50005 0 0 0 -0.4922,0.50781 l 0,15.7461 a 0.50005,0.50005 0 0 0 0.5,0.5 l 15,0 a 0.50005,0.50005 0 0 0 0.5,-0.5 l 0,-15.6836 a 0.50005,0.50005 0 1 0 -1,0 l 0,15.1836 -14,0 0,-15.2461 a 0.50005,0.50005 0 0 0 -0.5078,-0.50781 z" color="#000" font-family="sans-serif" font-weight="400" overflow="visible"/><path fill="#2b4255" fill-rule="evenodd" style="line-height:normal;text-indent:0;text-align:start;text-decoration-line:none;text-decoration-style:solid;text-decoration-color:#000;text-transform:none;block-progression:tb;isolation:auto;mix-blend-mode:normal" d="m 1224,-159.63867 0,1 4,0 0,-1 -4,0 z" color="#000" font-family="sans-serif" font-weight="400" overflow="visible"/><path fill="#2b4255" style="line-height:normal;text-indent:0;text-align:start;text-decoration-line:none;text-decoration-style:solid;text-decoration-color:#000;text-transform:none;block-progression:tb;isolation:auto;mix-blend-mode:normal" d="m 1231.4922,-150.66602 a 0.50004997,0.50004997 0 0 0 -0.4922,0.50586 l 0,10.52149 -10,0 0,-10.36133 a 0.50004997,0.50004997 0 1 0 -1,0 l 0,10.86133 a 0.50004997,0.50004997 0 0 0 0.5,0.5 l 11,0 a 0.50004997,0.50004997 0 0 0 0.5,-0.5 l 0,-11.02149 a 0.50004997,0.50004997 0 0 0 -0.5078,-0.50586 z" color="#000" font-family="sans-serif" font-weight="400" overflow="visible"/><path fill-rule="evenodd" style="line-height:normal;text-indent:0;text-align:start;text-decoration-line:none;text-decoration-style:solid;text-decoration-color:#000;text-transform:none;block-progression:tb;isolation:auto;mix-blend-mode:normal" d="m 1220.1953,-157.63672 0,1 11.6094,0 0,-1 -11.6094,0 z" color="#000" font-family="sans-serif" font-weight="400" overflow="visible"/><path fill="#25b39e" style="line-height:normal;text-indent:0;text-align:start;text-decoration-line:none;text-decoration-style:solid;text-decoration-color:#000;text-transform:none;block-progression:tb;isolation:auto;mix-blend-mode:normal" d="m 1220.293,-157.63867 a 0.50004997,0.50004997 0 0 0 -0.377,0.17383 c -1.624,1.8725 -2.5565,2.7933 -3.1328,3.50976 -0.5763,0.71646 -0.7832,1.3311 -0.7832,2.18946 l 0,0.0137 c 0,1.15726 0.9334,2.11328 2.084,2.11328 0.5753,0 1.1009,-0.23818 1.4765,-0.6211 a 0.50004997,0.50004997 0 0 0 0.086,-0.11718 c 0.01,-0.0166 0.025,-0.0825 0.037,-0.10157 0.049,0.0623 0.035,0.16257 0.09,0.21875 0.3757,0.38292 0.9013,0.6211 1.4766,0.6211 0.5313,0 1.0424,-0.14418 1.4375,-0.4668 0.1031,-0.0841 0.086,-0.26139 0.168,-0.36914 0.3818,0.48443 0.9023,0.83594 1.5605,0.83594 0.5438,0 1.0612,-0.17034 1.4531,-0.50977 0.091,-0.0788 0.074,-0.23748 0.1485,-0.33398 0.3816,0.48834 0.9051,0.84375 1.5664,0.84375 0.6747,0 1.2034,-0.37329 1.5879,-0.87891 0.3807,0.50534 0.9034,0.87891 1.5781,0.87891 0.6666,0 1.2043,-0.3607 1.5977,-0.85547 0.3813,0.4939 0.9027,0.85547 1.5683,0.85547 1.0966,0 1.9453,-0.88942 2.0274,-1.97266 a 0.50004997,0.50004997 0 0 0 0.037,-0.0918 0.50004997,0.50004997 0 0 0 0,-0.0137 c 2e-4,-0.0137 0.016,-0.0213 0.016,-0.0351 a 0.50004997,0.50004997 0 0 0 0,-0.0469 0.50004997,0.50004997 0 0 0 0,-0.002 0.50004997,0.50004997 0 0 0 0,-0.0488 c 0,-0.77954 -0.095,-1.38128 -0.6465,-2.10547 -0.5511,-0.72418 -1.5108,-1.65327 -3.3555,-3.5332 a 0.50004997,0.50004997 0 0 0 -0.3574,-0.15039 l -11.3476,0 z m 0.2246,1 10.9062,0 c 1.6983,1.72835 2.6994,2.71695 3.1348,3.28906 0.455,0.59786 0.4414,0.75652 0.4414,1.5 a 0.50004997,0.50004997 0 0 0 0,0.0469 0.50004997,0.50004997 0 0 0 0,0.004 0.50004997,0.50004997 0 0 0 0,0.0469 c 0,0.6306 -0.4803,1.11328 -1.084,1.11328 -0.5881,0 -1.0426,-0.4655 -1.0664,-1.07227 a 0.50004997,0.50004997 0 0 0 0,-0.0273 l -0.022,-0.11133 a 0.50004997,0.50004997 0 0 0 -0.9902,0.0977 c 0,0.0371 0.037,0.059 0.039,0.0957 l -0.029,0.002 0.01,0.0293 c -0.01,0.61084 -0.4606,0.98633 -1.0996,0.98633 -0.6036,0 -1.084,-0.48268 -1.084,-1.11328 a 0.50004997,0.50004997 0 0 0 -1,0 c 0,6.5e-4 0,0.001 0,0.002 l 0,0.0762 c 0,0.6306 -0.4489,1.03516 -1.082,1.03516 -0.603,0 -1.083,-0.48172 -1.084,-1.11133 0,-6.7e-4 0,-0.001 0,-0.002 l 0,-0.0332 a 0.50004997,0.50004997 0 0 0 -0.998,0.0332 c 0,0.0129 0.013,0.0204 0.014,0.0332 l -0.012,0 0.01,0.13672 c 0,0.31017 -0.1101,0.51765 -0.295,0.67773 -0.1859,0.16103 -0.4655,0.26563 -0.7988,0.26563 -0.6037,0 -1.082,-0.48268 -1.082,-1.11328 a 0.50004997,0.50004997 0 0 0 -1,0 l 0,0.23242 c 0,0.31532 -0.1021,0.49398 -0.2793,0.63867 -0.1772,0.14469 -0.4588,0.24219 -0.8047,0.24219 -0.3019,0 -0.5669,-0.11975 -0.7637,-0.32031 -0.1967,-0.20047 -0.3203,-0.47763 -0.3203,-0.79297 l 0,0 c -1e-4,-0.006 0,-0.006 0,-0.0117 a 0.50004997,0.50004997 0 0 0 -1,0.0117 c 0,0.004 0,0.007 0,0.0117 l 0,0 c 0.01,0.23852 -0.1729,0.46763 -0.3594,0.79882 -0.193,0.18156 -0.437,0.30274 -0.7226,0.30274 -0.6036,0 -1.084,-0.48268 -1.084,-1.11328 l 0,-0.0137 c 0,-0.7489 0.059,-0.93587 0.5625,-1.5625 0.4791,-0.59564 1.458,-1.59769 2.9551,-3.31055 z" color="#000" font-family="sans-serif" font-weight="400" overflow="visible"/><path fill="#25b39e" fill-rule="evenodd" style="line-height:normal;text-indent:0;text-align:start;text-decoration-line:none;text-decoration-style:solid;text-decoration-color:#000;text-transform:none;block-progression:tb;isolation:auto;mix-blend-mode:normal" d="m 1217.0273,-153.87305 0,1 17.9454,0 0,-1 -17.9454,0 z" color="#000" font-family="sans-serif" font-weight="400" overflow="visible"/><path fill="#2b4255" style="isolation:auto;mix-blend-mode:normal" d="m 1227.0002,-136.63781 a 1,1 0 0 1 -1,1 1,1 0 0 1 -1,-1 1,1 0 0 1 1,-1 1,1 0 0 1 1,1 z" color="#000" overflow="visible"/></g></svg>