<svg xmlns="http://www.w3.org/2000/svg" width="400" height="400" enable-background="new 0 0 400 400" viewBox="0 0 400 400"><polygon fill="#FCD2B1" points="346.344 343.957 53.38 343.957 53.38 207.576 113.994 207.576 199.862 121.708 285.732 207.576 346.344 207.576"/><rect width="60.613" height="60.613" x="169.556" y="283.343" fill="#2A94F4"/><path fill="#FFBE55" d="M247.289,81.299l8.232-12.351c1.031-1.549,1.13-3.542,0.251-5.184
						c-0.878-1.643-2.589-2.669-4.453-2.669h-50.511c-2.792,0-5.051,2.259-5.051,5.051v30.307c0,2.792,2.259,5.051,5.051,5.051
						h50.511c1.864,0,3.575-1.026,4.454-2.669c0.878-1.642,0.779-3.635-0.251-5.184L247.289,81.299z"/><path fill="#0E538C" d="M200,126.759c-2.792,0-5.052-2.258-5.052-5.051V56.044c0-2.792,2.26-5.051,5.052-5.051
							s5.052,2.259,5.052,5.051v65.664C205.052,124.5,202.792,126.759,200,126.759z"/><path fill="#F7F7F7" d="M275.628,240.409c0-6.975-5.652-12.627-12.627-12.627s-12.628,5.653-12.628,12.627
							c0,0.865,0.089,1.709,0.254,2.525h-0.254v20.205h25.255v-20.205h-0.255C275.54,242.118,275.628,241.273,275.628,240.409z"/><rect width="25.256" height="30.307" x="124.234" y="288.394" fill="#F7F7F7"/><rect width="25.256" height="30.307" x="78.636" y="288.394" fill="#F7F7F7"/><rect width="25.256" height="30.307" x="295.971" y="288.394" fill="#F7F7F7"/><rect width="25.255" height="30.307" x="250.374" y="288.394" fill="#F7F7F7"/><path fill="#F7F7F7" d="M320.95 240.409c0-6.975-5.653-12.627-12.628-12.627-6.974 0-12.628 5.653-12.628 12.627 0 .865.089 1.709.255 2.525h-.255v20.205h25.256v-20.205h-.254C320.861 242.118 320.95 241.273 320.95 240.409zM103.753 240.409c0-6.975-5.653-12.627-12.627-12.627-6.975 0-12.628 5.653-12.628 12.627 0 .865.089 1.709.254 2.525h-.254v20.205h25.255v-20.205h-.254C103.664 242.118 103.753 241.273 103.753 240.409zM149.074 240.409c0-6.975-5.652-12.627-12.627-12.627s-12.628 5.653-12.628 12.627c0 .865.089 1.709.255 2.525h-.255v20.205h25.255v-20.205h-.253C148.986 242.118 149.074 241.273 149.074 240.409z"/><path fill="#0E538C" d="M356.584,349.007H43.416c-2.792,0-5.051-2.259-5.051-5.051c0-2.792,2.259-5.052,5.051-5.052h313.168
							c2.792,0,5.051,2.259,5.051,5.052C361.635,346.749,359.376,349.007,356.584,349.007z"/><path fill="#2A94F4" d="M171.249 157.598l-48.498 48.499c-.945.945-2.223 1.479-3.564 1.479H43.42c-1.851 0-3.548-1.002-4.437-2.619-.881-1.616-.816-3.587.17-5.147l26.863-42.211H171.249zM360.88 204.956c-.89 1.616-2.587 2.619-4.43 2.619h-75.766c-1.35 0-2.627-.533-3.572-1.479l-48.499-48.499h105.232l26.864 42.211C361.703 201.369 361.761 203.34 360.88 204.956z"/><path fill="#0E538C" d="M285.8,212.559c-1.292,0-2.585-0.493-3.571-1.479L200,128.851l-82.228,82.229
							c-1.974,1.973-5.17,1.973-7.144,0c-1.973-1.973-1.973-5.17,0-7.144l85.8-85.8c1.973-1.973,5.17-1.973,7.144,0l85.799,85.8
							c1.974,1.973,1.974,5.17,0,7.144C288.384,212.065,287.092,212.559,285.8,212.559z"/><circle cx="199.862" cy="209.661" r="18.12" fill="#F7F7F7"/></svg>