<svg xmlns="http://www.w3.org/2000/svg" viewBox="0 0 32 32"><path fill="#90cff1" d="M26.5 22h-21c-.6 0-1-.4-1-1V7c0-.6.4-1 1-1h21c.6 0 1 .4 1 1v14c0 .5-.4 1-1 1z"/><path fill="#70b7e6" d="M26.5 17h-15c-2.8 0-5-2.2-5-5V7c0-.6.4-1 1-1h-2c-.6 0-1 .4-1 1v12h23v-3c0 .5-.4 1-1 1z"/><path fill="#91ca60" d="M24.5 17h-7c-.6 0-1-.4-1-1v-1c0-.6.4-1 1-1h7c.6 0 1 .4 1 1v1c0 .5-.4 1-1 1z"/><path fill="#70bb57" d="M18 15.5V14h-.5c-.6 0-1 .4-1 1v1c0 .6.4 1 1 1h7c.6 0 1-.4 1-1h-7c-.3 0-.5-.2-.5-.5z"/><path fill="#f0c9ae" d="M14 12.6v-2.1H7v3c0 1.9 1.6 3.5 3.5 3.5 1.8 0 3.2-1.3 3.5-3.1v-1.3z"/><path fill="#e2b698" d="M8.5 13.5v-3H7v3c0 1.9 1.6 3.5 3.5 3.5.3 0 .5 0 .7-.1-1.5-.3-2.7-1.7-2.7-3.4z"/><path fill="#8a6845" d="M14 12.7l.5-1.7c.2-.8-.4-1.5-1.2-1.5 0-.9-.8-1.7-1.8-1.5l-3.7.6c-.9.1-1.4 1-1.3 1.8l.5 2.3 1.3-1c.2-.1.4-.2.6-.2h3.2c.2 0 .4.1.6.2l1.3 1z"/><path fill="#745539" d="M8 10.4c-.1-.9.4-1.7 1.3-1.8l3-.5c-.2-.1-.5-.2-.8-.1l-3.7.6c-.9.1-1.4 1-1.3 1.8l.5 2.3 1.3-1-.3-1.3z"/><path fill="#eef2fa" d="M13.5 22h5v4h-5z"/><path fill="#d5e5f2" d="M16 23.5h2.5V22h-5v4H15v-1.5c0-.6.4-1 1-1z"/><path fill="#607d95" d="M4.5 21c0 .6.4 1 1 1h21c.6 0 1-.4 1-1v-2h-23v2z"/><path fill="#4b6c85" d="M6.5 21v-2h-2v2c0 .6.4 1 1 1h2c-.6 0-1-.5-1-1z"/><path fill="#004463" d="M26.5 22.5h-21c-.8 0-1.5-.7-1.5-1.5V7c0-.8.7-1.5 1.5-1.5h21c.8 0 1.5.7 1.5 1.5v14c0 .8-.7 1.5-1.5 1.5zm-21-16c-.3 0-.5.2-.5.5v14c0 .3.2.5.5.5h21c.3 0 .5-.2.5-.5V7c0-.3-.2-.5-.5-.5h-21zM22.5 26.5h-13c-.3 0-.5-.2-.5-.5s.2-.5.5-.5h13c.3 0 .5.2.5.5s-.2.5-.5.5z"/><path fill="#004463" d="M27.5 19.5h-23c-.3 0-.5-.2-.5-.5s.2-.5.5-.5h23c.3 0 .5.2.5.5s-.2.5-.5.5zM25.5 8.5h-7c-.3 0-.5-.2-.5-.5s.2-.5.5-.5h7c.3 0 .5.2.5.5s-.2.5-.5.5zM25.5 10.5h-7c-.3 0-.5-.2-.5-.5s.2-.5.5-.5h7c.3 0 .5.2.5.5s-.2.5-.5.5zM18.5 26.5h-5c-.3 0-.5-.2-.5-.5v-4c0-.3.2-.5.5-.5h5c.3 0 .5.2.5.5v4c0 .3-.2.5-.5.5zm-4.5-1h4v-3h-4v3zM10.5 17.5c-2.2 0-4-1.8-4-4v-1c0-.3.2-.5.5-.5s.5.2.5.5v1c0 1.7 1.3 3 3 3s3-1.3 3-3v-1c0-.3.2-.5.5-.5s.5.2.5.5v1c0 2.2-1.8 4-4 4z"/><path fill="#004463" d="M7 13.2h-.2c-.2-.1-.3-.2-.3-.4L6 10.5c-.1-.6 0-1.1.3-1.6s.8-.8 1.3-.8l3.7-.6c.7-.1 1.3 0 1.7.4.4.3.6.7.7 1.1.4.1.7.3.9.6.3.4.5 1 .4 1.5l-.5 1.7c0 .2-.2.3-.3.3-.2 0-.3 0-.5-.1l-1.3-1c-.1-.1-.2-.1-.3-.1H8.9c-.1 0-.2 0-.3.1l-1.3 1c-.1.2-.2.2-.3.2zM8.9 11h3.2c.3 0 .7.1.9.3l.7.6.3-1c0-.2 0-.4-.2-.6s-.3-.3-.6-.3-.5-.2-.5-.5-.1-.6-.4-.8c-.2-.2-.5-.3-.8-.2l-3.6.6c-.3 0-.5.2-.7.4-.2.2-.2.5-.2.8l.3 1.6.7-.6c.3-.2.6-.3.9-.3z"/><path fill="#004463" d="M12.5 15.6H11c-.3 0-.5-.2-.5-.5s.2-.5.5-.5h1.5c.6 0 1-.4 1-1v-1c0-.3.2-.5.5-.5s.5.2.5.5v1c0 1.1-.9 2-2 2z"/><circle cx="16.5" cy="8" r=".5" fill="#004463"/><circle cx="16.5" cy="10" r=".5" fill="#004463"/><path fill="#004463" d="M25.5 12.5h-7c-.3 0-.5-.2-.5-.5s.2-.5.5-.5h7c.3 0 .5.2.5.5s-.2.5-.5.5z"/><circle cx="16.5" cy="12" r=".5" fill="#004463"/><path fill="#004463" d="M24.5 17.5h-7c-.8 0-1.5-.7-1.5-1.5v-1c0-.8.7-1.5 1.5-1.5h7c.8 0 1.5.7 1.5 1.5v1c0 .8-.7 1.5-1.5 1.5zm-7-3c-.3 0-.5.2-.5.5v1c0 .3.2.5.5.5h7c.3 0 .5-.2.5-.5v-1c0-.3-.2-.5-.5-.5h-7z"/></svg>